<svg xmlns="http://www.w3.org/2000/svg" viewBox="0 0 762 762" fill="none" shape-rendering="auto" aria-hidden="true"><metadata xmlns:rdf="http://www.w3.org/1999/02/22-rdf-syntax-ns#" xmlns:xsi="http://www.w3.org/2001/XMLSchema-instance" xmlns:dc="http://purl.org/dc/elements/1.1/" xmlns:dcterms="http://purl.org/dc/terms/"><rdf:RDF><rdf:Description><dc:title>Adventurer</dc:title><dc:creator>Lisa Wischofsky</dc:creator><dc:source xsi:type="dcterms:URI">https://www.figma.com/community/file/1184595184137881796</dc:source><dcterms:license xsi:type="dcterms:URI">https://creativecommons.org/licenses/by/4.0/</dcterms:license><dc:rights>Remix of “Adventurer” (https://www.figma.com/community/file/1184595184137881796) by “Lisa Wischofsky”, licensed under “CC BY 4.0” (https://creativecommons.org/licenses/by/4.0/)</dc:rights></rdf:Description></rdf:RDF></metadata><defs><g id="head-default-1b3f4a73"><path d="M252.8 2a225 225 0 0 1 104.8 42.3c6.2 4.9 12.5 9.4 18 15a225 225 0 0 1 71.8 149 58.5 58.5 0 0 1 50.9 42.2 71 71 0 0 1-27.7 76.5 64 64 0 0 1-37.8 11.7c-5.1 0-10-1.6-15.1-1.8q-2.7 3.5-4.8 7.3a223 223 0 0 1-167.1 102.7c-11 .7-21.9 2-33 .7A223.7 223.7 0 0 1 34 105.3 223 223 0 0 1 208.8.6a216 216 0 0 1 44 1.3" fill="black"/><path fill-rule="evenodd" clip-rule="evenodd" d="M355.6 50.3A216 216 0 0 0 219.8 6.2a197 197 0 0 0-39 4A218 218 0 0 0 67.2 375.8 218.5 218.5 0 0 0 327.6 416c35-18.8 64.3-47.3 84.4-81.5l-3-1.6q-4.4-2-8-5c-2.2-2-.3-5.8 2.7-4.7q2.3 1.1 4.4 2.4 2.2 1.6 4.7 2.6a55 55 0 0 0 54.9-6.2 64.5 64.5 0 0 0 25-69.8 53 53 0 0 0-24-31c-13.4-8-30-9-44.7-3.7l-2.3 1c-1.6.7-3.4 1.4-5 1.2-2.5-.2-2.8-4.2-.6-5.2 8-4 16.5-5.6 25.4-6.4A217 217 0 0 0 373 65l-3.6-3.3c-4.3-4-8.6-8.1-13.8-11.3m107.6 196.2c2-1.2 1.3-5.1-1.4-5-2 0-4.2.8-6.2 1.6l-1.4.5a95 95 0 0 0-25.5 12.3c-2.2 2-2.2 4.4.1 6.2l5.2 2.8a36 36 0 0 1 13 9.3c-.2 1.8-2 3.3-3.4 4.4l-.2.2c-3.9 3-8.8 5-13.6 7l-7.2 3.1c-1.6.8-2.5 2.2-1.5 3.9 1 2 3.2 1.1 5 .5l.6-.2 5.4-2.3c5.4-2.3 11-4.5 15.4-8 2.7-2.1 5.1-5.1 5.4-8.7-.5-3.4-2.7-5.7-5.3-7.8-3.5-2.8-7.7-5-11.6-7.2l-1.1-.6q8-4.5 16.7-7.7l4.8-1.7a52 52 0 0 0 6.8-2.6" fill="#ecad80"/></g><g id="eyes-variant09-1b3f4a73"><path d="M239.3.9a65.3 65.3 0 0 1 66.3 75.4c-1 7.6-4 14.4-6.8 21.4q-2.3 1-4.4 1.6c-3.2 0-6.4-1.4-9.4-2.2a176 176 0 0 0-47.7-7 97 97 0 0 0-39.3 8.4c-2.9 1.3-5.6 3-8.6 3.9-3.5-.3-4.4-3.2-6-5.8a66 66 0 0 1 12.9-77.8c11.6-11 27-17.5 43-18" fill="black"/><path d="M241.3 6.7a59 59 0 0 1 57.1 43.1 60 60 0 0 1-4.2 43.6c-6.2-1-11.9-3.2-18-4.4a157 157 0 0 0-51.4-3.5A91 91 0 0 0 190 96.7a60 60 0 0 1 9.8-73.4 59 59 0 0 1 41.5-16.6" fill="white"/><path d="M65.6 23.9a55.4 55.4 0 0 1 59.8 45.3A55 55 0 1 1 65.5 24" fill="black"/><path d="M60.8 30.5a49.6 49.6 0 0 1 59.6 52.3 50 50 0 0 1-45.1 45 49.3 49.3 0 0 1-14.5-97.3" fill="white"/><path d="M203.7 51.5a15.9 15.9 0 1 1 7.1 30.9c-9.2 2.2-18.8-5-19-14.6a16 16 0 0 1 12-16.3M87.7 62.4c9.6-3.2 20 4.4 20.4 14.3.8 8.9-6.9 17.1-15.8 16.8-8.6.4-16-7.1-16-15.7a16 16 0 0 1 11.4-15.4m195.4 47.1 3.2 1c-.4 1.7-.3 3.3-1.7 4.5a40 40 0 0 1-25.3 9.9c-3.8-.1-8.6-1-11.5-3.8l-.4-3.6 2.8-1c4.5 2.2 9 3.5 14.1 2.3 7.5-1.3 12.6-5.5 18.8-9.3M31.4 124.6c2.2-.5 3.8 1.4 5.5 2.6a53 53 0 0 0 33.4 11.4c5.8.1 10.8-2.2 16.7-1.3-.5 2.4 0 4.4-3 5A58 58 0 0 1 31.3 130c-1.8-1.4-2.3-4.4.2-5.3" fill="black"/></g><g id="eyebrows-variant05-1b3f4a73"><path d="M207.6 32.9c6.2-.5 13-.6 18.5 3a10 10 0 0 1 4.4 10.6C229 52.8 224 57.6 219 61a68 68 0 0 1-30.6 11.6c-5.6.5-12.5.4-17.4-2.6a10 10 0 0 1-5.2-10.3c1-5.8 5.5-10.5 10-14 9.1-7 20.5-11.3 31.9-12.8M76.6 49.7a47 47 0 0 1 26.3 5.3c3.8 2.2 7.3 5.9 7.9 10.5.3 4.2-2 7.8-5.2 10.2-4.5 3.6-9.9 5-15.4 6-10 1-20.6.3-29.5-4.6-3.9-2.2-7.9-5.8-8.5-10.5-.7-4.3 2-8.5 5.4-10.9a36 36 0 0 1 19-6" fill="black"/></g><g id="mouth-variant26-1b3f4a73"><path d="M123.5 15.8a55 55 0 0 1 38.6 13c6 5.6 9.7 13.4 9.9 21.6A44 44 0 0 1 162 78a88 88 0 0 1-35.5 26.5c-7.3 2.9-14.4 5.8-22.1 7.3a86 86 0 0 1-50-5.3A131 131 0 0 1 16 81.8 55 55 0 0 1 3 62.9C.9 57.4.5 51 4 46c3.7-5.4 10-7.7 16.2-8.8 12.6-1.8 24.4.4 36.5 3.7a92 92 0 0 1 25-16.2c13-5.7 27.4-9.3 41.7-8.9" fill="black"/><path d="M149 26.7c-3.5 2.7-7.4 4.8-10.9 7.4-4.3 4-7.6 11-12.7 14-5.2 1-10.5-3.2-15.2-1q-14 5.1-28.5 7.9a118 118 0 0 1-43.6.9c-4.3-1.1-7.2 1.3-11.5 1.8-4.4-4.2-7.5-9.2-12.7-12.5 12.7-5.4 28.7-2 41.6 1.5 4 1.2 6-2.5 8.8-4.5a97 97 0 0 1 47.2-19.9 68 68 0 0 1 37.5 4.4" fill="white"/><path d="M154.5 30.3a26 26 0 0 1 11.8 21.1c-.2 7.4-3 14-6.8 20.2a46 46 0 0 0-20-2.8 138 138 0 0 0-42 9.6c-9 3.7-18 8.3-25.7 14.3-3.7 3-6.4 6.2-8.7 10.4a93 93 0 0 1-21.6-9.7c-9.9-5.9-19-12.7-26.5-21.5-3.7-4.7-7.5-10.4-7.7-16.5C7 53 8.2 51 9 48.8c5.4 3.7 9.3 8.7 14.2 12.9 4 3.4 9.2-.7 13.8 0q8.7 1.4 17.5 1.8Q85.3 63 114 52c4.2.8 10 2.7 14 1 5-2.8 8.6-8.6 12.2-12.9 1.4-1.7 3.8-3 5.7-4.2 2.9-1.7 5.5-4 8.4-5.6" fill="#8F2E45"/><path d="M142.5 74.6q6.8-.1 13.3 1.9a87 87 0 0 1-35.9 24.4 86 86 0 0 1-51.2 3.9q2.9-4.2 6.8-7.4a103 103 0 0 1 31-16c11.5-3.8 23.8-6.6 36-6.8" fill="#EA869E"/></g><g id="hair-short01-1b3f4a73"><path d="M280.2 157.9c2.2.8 2.4 2.8 3.1 4.8a48 48 0 0 0 9.3 16.7A47 47 0 0 0 309 193c8 3.5 17.1 5.3 25.6 7.1a372 372 0 0 0 43 5.6c15.3 1.6 30.6 1.5 46 2.4 20.3 0 40.7.6 61-.7q12 .1 24-1a180 180 0 0 1 60.5 5.7c7.7 2.8 15.5 5.3 22.8 9a194 194 0 0 1 65.2 46.8c21.4 23.4 37 52.4 43 83.7a137 137 0 0 1-3.4 65.8c-2 7.4-4.7 14.4-9 20.7-4.3-3.3-8-6.7-13.1-8.7a53 53 0 0 0-39-3c-2.9.5-3.5 2.9-5 5a168 168 0 0 1-35.8 41.2q-13.6 10.8-28.4 19.7l-3-.8q-.3-4.6.7-9c1.4-7.4 1.5-14.7 1.6-22.1a267 267 0 0 0-1.6-31q-2-17-5-33.8c-7-.7-14-.5-21-1.6a217 217 0 0 1-100-40.9 40 40 0 0 0 8.8 21c2.1 2.4 1.8 6-1 7.6-12.2 6.9-27.1 10-41 11.1a170 170 0 0 1-67.8-9c-17.9-6.3-35-15.5-47.2-30.4a54 54 0 0 0 4.5 24.3c1.2 2.3.3 5.2-2 6.4a50 50 0 0 1-31.6 4 73 73 0 0 1-36-20c-2.4 7.4-3.8 15-5.9 22.4-1.7 6.8-2.4 13.9-3.6 20.8-1.7 2.2-4.4-.5-5.6-2a61 61 0 0 1-10.1-33.9 71 71 0 0 1 8-33 71 71 0 0 1-4.8-41.6 60 60 0 0 0-23.4 18.3c-1.4 1.9-2.1 5-4.8 5.1-1.7-.5-3.1-1.1-4-2.8a58 58 0 0 1-6.8-35.2 82 82 0 0 1 16.1-39.4 100 100 0 0 1 49.7-35.5 77 77 0 0 1 37.8-2.9 44 44 0 0 1 6.1-47c1.7-1.7 4-4.7 6.7-3.6M623.1 541c2-1 5 .5 7 .8 5 1.4 11.3.4 15.8 3-.7 4-1.4 7.7 0 11.6q2.4 7.3 8 12.7c2.3 2.2 5.2 3.4 7.6 5.5.7 1.8.2 3.6-1.9 4-4.1.6-8.7-.7-12.8-1.4-9.9-2.2-20.9-4-29.8-9-2.2-1.4-5.7-3.2-6.2-6-.5-1.6.6-2.8 1.5-4.1 4.2-5.2 7-11.7 10.8-17.2" fill="black"/><g fill="#592454"><path d="M278.3 165a65 65 0 0 0 20.3 28.4 61 61 0 0 0 25 10.3c32.1 7.5 66.1 9.2 99 10 26 .2 52 .4 78-1a178 178 0 0 1 72.5 7.4c35 11.4 66.5 33.7 89 62.8a161 161 0 0 1 33.6 78.5c3 23 0 46.6-9.7 67.7a78 78 0 0 0-18.4-8.6 60 60 0 0 0-30.7 0c.2-1.8 1-4 0-5.5-.9-1.4-3.6-1.3-4 .6a56 56 0 0 1-4.7 9.4 172 172 0 0 1-35.4 41.6c-7.3 6.3-15.2 11.4-23 16.8 2.3-14.1 2.3-28.7 1-43-1-17.4-4.3-34.9-7.4-52-1.1-4.6-1.6-9.8-3.7-14-1.2-2.3-5-2-4.7 1 1 4.8 2.4 9.4 3 14.2-40.5-.6-80-15.5-113-38.7l-8.3-6c-2 .9-4.3.8-4.4 3.5a46 46 0 0 0 10 28.7c-19.3 9.8-40.4 11.1-61.7 9.9a155 155 0 0 1-63.9-18.8 72 72 0 0 1-23.5-20.4c-1.3-1.7-2.3-3.4-4.6-3.9q-2.4-.3-3.2 2a59 59 0 0 0 3.7 33.5c-12.8 6-27 4.7-39.6-1a75 75 0 0 1-37.7-41.2 63 63 0 0 1-2.8-36.8c.4-2.1 1-4-.8-5.6-2.3-2.1-5.1-.4-7.5.7-7.1 3.8-14.5 8-20.2 13.8q-3.1 3.4-6 7a54 54 0 0 1-4.8-30.9c2-13.2 7.5-25.6 15.7-36.2a95 95 0 0 1 39-29.9c13-5.3 27.2-7.5 41.2-5.5 2.3.3 4.8 1.2 7.1 1 2-1.4 4-3.2 2.1-5.7a33 33 0 0 1-5.6-22.7c.6-7.6 3.5-16 9-21.4"/><path d="M210.8 349.3q4.4 7.3 9.5 13.8c-1.4 6.9-3.7 13.4-5.2 20.3-1.1 5.7-2.8 11.4-4 17.1a64 64 0 0 1-.2-51.2m415 197.1q6.8 1.3 13.7 2.2c-1 9.4 3.6 17 9.6 23.6-10.5-2.6-23.3-4.5-32.2-10.9q4.8-7.2 8.9-14.9"/></g></g><clipPath id="clip-1b3f4a73"><rect width="762" height="762" rx="0" ry="0"/></clipPath></defs><g clip-path="url(#clip-1b3f4a73)"><rect width="762" height="762" fill="#14b8a6"/><use transform="translate(143.2 162.9)" href="#head-default-1b3f4a73"/><use transform="translate(154.7 340.2)" href="#eyes-variant09-1b3f4a73"/><use transform="translate(154.6 268.5)" href="#eyebrows-variant05-1b3f4a73"/><use transform="translate(232.5 456.6)" href="#mouth-variant26-1b3f4a73"/><use transform="translate(-65.6 -47.4)" href="#hair-short01-1b3f4a73"/></g></svg>