<svg xmlns="http://www.w3.org/2000/svg" viewBox="0 0 762 762" fill="none" shape-rendering="auto" aria-hidden="true"><metadata xmlns:rdf="http://www.w3.org/1999/02/22-rdf-syntax-ns#" xmlns:xsi="http://www.w3.org/2001/XMLSchema-instance" xmlns:dc="http://purl.org/dc/elements/1.1/" xmlns:dcterms="http://purl.org/dc/terms/"><rdf:RDF><rdf:Description><dc:title>Adventurer</dc:title><dc:creator>Lisa Wischofsky</dc:creator><dc:source xsi:type="dcterms:URI">https://www.figma.com/community/file/1184595184137881796</dc:source><dcterms:license xsi:type="dcterms:URI">https://creativecommons.org/licenses/by/4.0/</dcterms:license><dc:rights>Remix of “Adventurer” (https://www.figma.com/community/file/1184595184137881796) by “Lisa Wischofsky”, licensed under “CC BY 4.0” (https://creativecommons.org/licenses/by/4.0/)</dc:rights></rdf:Description></rdf:RDF></metadata><defs><g id="head-default-837e3042"><path d="M252.8 2a225 225 0 0 1 104.8 42.3c6.2 4.9 12.5 9.4 18 15a225 225 0 0 1 71.8 149 58.5 58.5 0 0 1 50.9 42.2 71 71 0 0 1-27.7 76.5 64 64 0 0 1-37.8 11.7c-5.1 0-10-1.6-15.1-1.8q-2.7 3.5-4.8 7.3a223 223 0 0 1-167.1 102.7c-11 .7-21.9 2-33 .7A223.7 223.7 0 0 1 34 105.3 223 223 0 0 1 208.8.6a216 216 0 0 1 44 1.3" fill="black"/><path fill-rule="evenodd" clip-rule="evenodd" d="M355.6 50.3A216 216 0 0 0 219.8 6.2a197 197 0 0 0-39 4A218 218 0 0 0 67.2 375.8 218.5 218.5 0 0 0 327.6 416c35-18.8 64.3-47.3 84.4-81.5l-3-1.6q-4.4-2-8-5c-2.2-2-.3-5.8 2.7-4.7q2.3 1.1 4.4 2.4 2.2 1.6 4.7 2.6a55 55 0 0 0 54.9-6.2 64.5 64.5 0 0 0 25-69.8 53 53 0 0 0-24-31c-13.4-8-30-9-44.7-3.7l-2.3 1c-1.6.7-3.4 1.4-5 1.2-2.5-.2-2.8-4.2-.6-5.2 8-4 16.5-5.6 25.4-6.4A217 217 0 0 0 373 65l-3.6-3.3c-4.3-4-8.6-8.1-13.8-11.3m107.6 196.2c2-1.2 1.3-5.1-1.4-5-2 0-4.2.8-6.2 1.6l-1.4.5a95 95 0 0 0-25.5 12.3c-2.2 2-2.2 4.4.1 6.2l5.2 2.8a36 36 0 0 1 13 9.3c-.2 1.8-2 3.3-3.4 4.4l-.2.2c-3.9 3-8.8 5-13.6 7l-7.2 3.1c-1.6.8-2.5 2.2-1.5 3.9 1 2 3.2 1.1 5 .5l.6-.2 5.4-2.3c5.4-2.3 11-4.5 15.4-8 2.7-2.1 5.1-5.1 5.4-8.7-.5-3.4-2.7-5.7-5.3-7.8-3.5-2.8-7.7-5-11.6-7.2l-1.1-.6q8-4.5 16.7-7.7l4.8-1.7a52 52 0 0 0 6.8-2.6" fill="#ecad80"/></g><g id="eyes-variant01-837e3042"><path d="M274.3 9.9a67 67 0 0 1 26.7 30c5.9-3.2 11.6-6.8 17.6-9.7 1.8-1 4.4.5 4 2.6.2 1.5-2 2.5-3 3.2l-16.4 9a65.7 65.7 0 0 1-39.4 82.3 66 66 0 0 1-78.5-27.5 64 64 0 0 1-9.3-33A65 65 0 0 1 229.3 2a65 65 0 0 1 45 7.9" fill="black"/><path d="M233.5 7a59.7 59.7 0 0 1 67.2 59.8A59.5 59.5 0 1 1 233.5 7" fill="white"/><path d="M74.3 23.7a55 55 0 1 1-55.7 38.7L7.3 58c-2-.8-4-1.4-5.4-3q-.5-4 3.2-3.7c5.2 1.3 10 4.2 15.2 5.6 1.4-1.7 2.2-3.8 3.3-5.7a55 55 0 0 1 50.7-27.4" fill="black"/><path d="M60.8 30.5a49.3 49.3 0 1 1 20.8 96.4 49.3 49.3 0 0 1-20.8-96.4" fill="white"/><path d="M262.6 42.2a25 25 0 0 1 27.9 24.6c-.4 4.8-1.8 9.7-4.6 13.6A25 25 0 0 1 267.3 91a24.5 24.5 0 0 1-21.8-38 25 25 0 0 1 17-10.8M92.8 55.3a23 23 0 0 1 19.6 7.5q6 6.8 5.7 16c0 12-10.7 22.8-22.8 22.3a23 23 0 0 1-22.9-22.3 23 23 0 0 1 20.4-23.5" fill="black"/></g><g id="eyebrows-variant15-837e3042"><path d="M252.8 54.5c-.6-3-2.5-5-4.6-6.9a50 50 0 0 0-45.6-11.5 38 38 0 0 0-23.7 17c-2.8 5-4.7 10.6-4 16.4l.2 1.2c.2 1.7.4 3 2.5 3.6q3.3 0 6.5-.7h.3l6.2-1.3 15.7-3.1Q229 64.4 251.2 58c1.8-.3 1.7-1.6 1.6-3zM114.5 79.6c-.8-9.8-9-17.5-18-20.4-13.2-4-28.3-.4-38.3 9.2a28 28 0 0 0-9 16.1c-.2 2.7 2.3 2.8 4.4 2.8h.7l9.1-.1a336 336 0 0 0 35.2-1.9q6.4-.4 12.8-1.1c2.4 0 3.2-2.6 3-4.6" fill="black"/></g><g id="mouth-variant27-837e3042"><path d="M130.7 16.3c.6 7-.9 13.3-1.6 20.1-2.7 24.2-9.3 48-19.1 70.2-3.7 7.4-6.7 15.8-14 20.4-3.8 2.8-9 2-13.2.1a44 44 0 0 1-12.4-8.6 171 171 0 0 1-30-42.1c-6.7-12.6-11.6-25.8-17-39-1-2-1.2-4 1-5.3 4.4-.1 8.7 1.4 13 1.4 10 .4 20 .5 29.9-.9 17.7-2 35-7.1 51.5-13.9 4.3-1.5 7.2-4.3 11.9-2.4" fill="black"/><path d="M125.4 22.4a298 298 0 0 1-8.9 48A52 52 0 0 0 90.1 77a67 67 0 0 0-27.3 23.9 198 198 0 0 1-19.3-31.5C38 59.3 34 48.7 29.5 38.2c9.4.8 18.5 2 28 1 23.2-.7 46.7-7.7 68-16.8" fill="#8F2E45"/><path d="M114.7 76.5A184 184 0 0 1 99 115a18 18 0 0 1-6.7 7.4c-4 1.7-9-1.2-12.4-3.5-5.4-3.4-8.6-8.3-12.9-12.7a36 36 0 0 1 10.4-13.7c7.8-6.7 17.1-12 27-15q5-1.3 10.2-1" fill="#EA869E"/></g><g id="glasses-variant02-837e3042"><path d="M345.5.2q5.5-.1 11 .5c2.6.6 5.6 2 6 4.9 1 5 .5 12-1 17-.5 1.7-1.8 2-3.4 2.3q-7.1.7-14.2 1c.5 15.7 2.7 32.5.2 47.8q-1.5 11.4-5.7 21.8a66 66 0 0 1-15.4 22.7 75 75 0 0 1-36.2 21.8q-16.5 3.5-33.3 2.1a87 87 0 0 1-27-8.4c-10.5-6-18.5-15-24.8-25.2a134 134 0 0 1-15.5-41.6c-1.1-5-1.4-10.3-2.8-15.1-.4-1.8-2.6-3-4.1-4-6.7-3.3-16.4-.9-19 6.7-1 5.6-.2 11.5-1.2 17.2-2 13-4.8 26.1-10.6 38a70 70 0 0 1-22.4 29.6 73 73 0 0 1-64 7.7 63 63 0 0 1-18.8-14 107 107 0 0 1-20.8-43.2q-3-10.2-3-20.9c-4 .6-8 1.7-12 2q-3.6.4-5.4-2.7A20 20 0 0 1 .3 55.6C.6 54.4.7 53 2 52.3c27.5-12.6 56-20.6 85.5-26.5 11.2-2.3 22.5-3.8 34-3 10 0 20 2.3 28.8 7a42 42 0 0 0 35.2 0c4.9-2.5 6.8-6.7 10.9-10.2 9.8-9.1 23-13.3 36.1-14.8 14-2.6 28-3.1 42-3.8 13-.3 26 .1 39-.5 10.7-.3 21.3-.1 32-.3m-230 28.5c-9.8-1-20.4 1.5-30 3.3-11.8 2.7-23.3 4.6-34.5 9.2-6.4 2.5-14.3 4.7-17.7 11.3C27.9 63.4 29.8 74 31 85.7A92 92 0 0 0 44 119c5.2 8 11 15 19.5 19.6 12.8 7 28 6.1 41.4 1.5 11.4-4.4 21.8-9.8 28.6-20.3 8.8-14 13.9-30.7 15.5-47.2q1.2-14.1-2.7-27.8-.6-2.3-2-4.1a36 36 0 0 0-19.1-11.4c-3.2-.5-6.6-.4-9.8-.6m199.1-19a54 54 0 0 0-24.1-3c-13 .1-26 0-39 1.4q-14.7 1-28.8 5A47 47 0 0 0 203 28a46 46 0 0 0-5.5 23.6 100 100 0 0 0 5.9 37.3c2.1 5.5 4 11.5 7.5 16.4a70 70 0 0 0 17 17c5.4 3.4 10.3 6.8 16.6 8.4 6 1.4 12 3 18 3.4 10 .6 20.2-2.4 29.4-6.2a76 76 0 0 0 17.8-10.2 61 61 0 0 0 18.2-23.9 96 96 0 0 0 5.2-37.2 98 98 0 0 0-8.4-40.2c-1.2-3.9-6.6-5.3-10-6.9" fill="black"/></g><g id="hair-short19-837e3042"><path d="M462.6 212.4A224 224 0 0 1 567 255.1c4 3.3 8.3 6.2 12.2 9.7q16.3 14.4 29.7 31.3c24 30.7 40 67.6 45.4 106.3 1 6.7 2 13.3 1.5 20.2-4.1 2.9-8.2 1.5-13 2.5-5.8.7-10.8 3.1-16.2 5-2.8.1-2.7-2-3.6-4 7.5-5.3 18.3-7 27.3-7.7A218 218 0 0 0 577.2 271c-6-6.2-13-10.4-19.7-15.5-32.7-23-72-36.5-111.9-38.9-12.8-.2-26.1-.6-38.8 1.2a218 218 0 0 0-143 78.6l-4-1.5c.6-2 .6-3.7 2-5.3a224 224 0 0 1 146.8-77.9l12.5-1c14-1 27.7 0 41.5 1.7" fill="black"/><path opacity=".1" d="M445.6 216.6a219 219 0 0 1 112 39c6.6 5 13.7 9.2 19.5 15.3a218 218 0 0 1 73.2 147.5c-9 .8-19.8 2.4-27.3 7.8-3 2.2-6.2 4.5-9.8 5.8-1.5.7-3.3-1.2-3.2-2.7.3-3.5 1.5-6.9 2-10.4 2.2-13.8.6-28.4-4.6-41.4a41 41 0 0 1-16-1A57 57 0 0 1 567 360c-8.5-9-15.5-19.8-21.2-30.8a241 241 0 0 1-20.8-59.6 180 180 0 0 1-35 12.4 663 663 0 0 1-115.4 18.8c-15 1-30 2-45 2-13.7 0-27.4-.1-41-1.7-8.5-.6-16.5-2.9-24.8-4.7a218 218 0 0 1 143-78.6c12.7-1.8 26-1.4 38.8-1.2" fill="black"/></g><clipPath id="clip-837e3042"><rect width="762" height="762" rx="0" ry="0"/></clipPath></defs><g clip-path="url(#clip-837e3042)"><rect width="762" height="762" fill="#14b8a6"/><use transform="translate(143.2 162.9)" href="#head-default-837e3042"/><use transform="translate(154.7 340.2)" href="#eyes-variant01-837e3042"/><use transform="translate(154.6 268.5)" href="#eyebrows-variant15-837e3042"/><use transform="translate(232.5 456.6)" href="#mouth-variant27-837e3042"/><use transform="translate(133.5 332.3)" href="#glasses-variant02-837e3042"/><use transform="translate(-65.6 -47.4)" href="#hair-short19-837e3042"/></g></svg>