<svg xmlns="http://www.w3.org/2000/svg" viewBox="0 0 762 762" fill="none" shape-rendering="auto" aria-hidden="true"><metadata xmlns:rdf="http://www.w3.org/1999/02/22-rdf-syntax-ns#" xmlns:xsi="http://www.w3.org/2001/XMLSchema-instance" xmlns:dc="http://purl.org/dc/elements/1.1/" xmlns:dcterms="http://purl.org/dc/terms/"><rdf:RDF><rdf:Description><dc:title>Adventurer</dc:title><dc:creator>Lisa Wischofsky</dc:creator><dc:source xsi:type="dcterms:URI">https://www.figma.com/community/file/1184595184137881796</dc:source><dcterms:license xsi:type="dcterms:URI">https://creativecommons.org/licenses/by/4.0/</dcterms:license><dc:rights>Remix of “Adventurer” (https://www.figma.com/community/file/1184595184137881796) by “Lisa Wischofsky”, licensed under “CC BY 4.0” (https://creativecommons.org/licenses/by/4.0/)</dc:rights></rdf:Description></rdf:RDF></metadata><defs><g id="head-default-14d21430"><path d="M252.8 2a225 225 0 0 1 104.8 42.3c6.2 4.9 12.5 9.4 18 15a225 225 0 0 1 71.8 149 58.5 58.5 0 0 1 50.9 42.2 71 71 0 0 1-27.7 76.5 64 64 0 0 1-37.8 11.7c-5.1 0-10-1.6-15.1-1.8q-2.7 3.5-4.8 7.3a223 223 0 0 1-167.1 102.7c-11 .7-21.9 2-33 .7A223.7 223.7 0 0 1 34 105.3 223 223 0 0 1 208.8.6a216 216 0 0 1 44 1.3" fill="black"/><path fill-rule="evenodd" clip-rule="evenodd" d="M355.6 50.3A216 216 0 0 0 219.8 6.2a197 197 0 0 0-39 4A218 218 0 0 0 67.2 375.8 218.5 218.5 0 0 0 327.6 416c35-18.8 64.3-47.3 84.4-81.5l-3-1.6q-4.4-2-8-5c-2.2-2-.3-5.8 2.7-4.7q2.3 1.1 4.4 2.4 2.2 1.6 4.7 2.6a55 55 0 0 0 54.9-6.2 64.5 64.5 0 0 0 25-69.8 53 53 0 0 0-24-31c-13.4-8-30-9-44.7-3.7l-2.3 1c-1.6.7-3.4 1.4-5 1.2-2.5-.2-2.8-4.2-.6-5.2 8-4 16.5-5.6 25.4-6.4A217 217 0 0 0 373 65l-3.6-3.3c-4.3-4-8.6-8.1-13.8-11.3m107.6 196.2c2-1.2 1.3-5.1-1.4-5-2 0-4.2.8-6.2 1.6l-1.4.5a95 95 0 0 0-25.5 12.3c-2.2 2-2.2 4.4.1 6.2l5.2 2.8a36 36 0 0 1 13 9.3c-.2 1.8-2 3.3-3.4 4.4l-.2.2c-3.9 3-8.8 5-13.6 7l-7.2 3.1c-1.6.8-2.5 2.2-1.5 3.9 1 2 3.2 1.1 5 .5l.6-.2 5.4-2.3c5.4-2.3 11-4.5 15.4-8 2.7-2.1 5.1-5.1 5.4-8.7-.5-3.4-2.7-5.7-5.3-7.8-3.5-2.8-7.7-5-11.6-7.2l-1.1-.6q8-4.5 16.7-7.7l4.8-1.7a52 52 0 0 0 6.8-2.6" fill="#9e5622"/></g><g id="eyes-variant14-14d21430"><path d="M243.3 21.3a75 75 0 0 1 33.2 4.3 46 46 0 0 1 26.2 23.8c1.4 3.3 3.1 7.6 2.2 11.1-3 3.3-8.5 1-12.5 1q-19.1-.9-38 .6c-14 1-28.5 1.7-42 5.3a188 188 0 0 0-25.2 7.4c-3.7 1.2-6.8 3-11 2.2 1.4-16.8 13-31.4 26.4-41a87 87 0 0 1 40.7-14.7" fill="black"/><path d="M257.3 27A54 54 0 0 1 289 40q7.5 7 10.2 16.7c-16.7-2.2-34.3-.9-51 0-7.7 1-15.4 1-23 2.3a107 107 0 0 0 1-27.7c10-3.6 20.3-5.5 31-4.3" fill="white"/><path d="M53.5 45.5a80 80 0 0 1 50.9 8.2c8.7 4.8 16.9 12 20.6 21.5.7 2 1.6 4.5-.7 6-2.7 0-5.4-.7-8-1.1-9.4-1.8-19.4-2.1-29-2.6-10.7-.4-21.3.5-32 .6-12.5.9-24.8 3-37 5-2.5.6-3.2-2.4-3.2-4.2.2-12.4 9.1-22.3 19.8-27.5q9-3.8 18.6-6" fill="black"/><path d="M201.2 44.1c-.6 7-.6 13.5 0 20.4a278 278 0 0 0-18.1 6.1 58 58 0 0 1 18-26.5M58.9 50.2c9.9-.6 19.7 0 29.2 2.9a51 51 0 0 1 30.6 21.5c-20.2-3.5-40-2.6-60.4-2.4 1-7.4.7-14.7.6-22m-24.1 7.2q-.4 8.7 0 17.5-7 .3-14 1.7c1.6-7 5.1-12.1 10.6-16.6z" fill="white"/></g><g id="eyebrows-variant10-14d21430"><path d="M229.4 27c24.7 1 48 9 69.4 21 2.3 1.3 5 2.5 6.8 4.3 1.3 2.4-.4 5.2-3.2 4.2a234 234 0 0 0-51-12c-20.3-2.4-40-3.7-60.2-.1-3.2.4-6.9 2.1-10.1 1.6-2.7-1.7-1.2-6.1 1.3-7.4a79 79 0 0 1 47-11.6M92.3 45.4q5.2 1 9.7 3.8l-.3 3.6q-4.2 1-8.3 1.4a152 152 0 0 0-38.8 9.6 141 141 0 0 0-35.2 18.8c-2.8 2-4.1 4.8-8 4.4l-1.6-2.6q1.3-2.4 2.8-4.7a90 90 0 0 1 38.6-29.3 71 71 0 0 1 41.1-5" fill="black"/></g><g id="mouth-variant23-14d21430"><path d="M141.5 23.3a31 31 0 0 1 22.7 17.4 48 48 0 0 1 3.5 23.7 53 53 0 0 1-15 30.3 66 66 0 0 1-33.2 18.8 141 141 0 0 1-62 .3A85 85 0 0 1 18.9 94c-4.5-4.2-9-9.1-11-15a30 30 0 0 1 1.5-23.6c3.4-6.3 10-10.5 17-10.7 12.8-.7 24 4.2 36 4.8q12.2.2 23.3-4C97 40.7 107 31 118.5 26.4c7.4-3 15-4.6 23-3" fill="black"/><path d="M144.5 30.3c7 2.5 12.7 7.9 15.1 15q-4.4 3.8-9 7.3c-3.6 2.6-7.2 4.4-10 8-3.1 4-5.9 9.9-10.3 12.5-3.4-.4-6.7-2.9-9.8-4-2.5-.6-5.4.4-7.8 1A167 167 0 0 1 75.5 76a46 46 0 0 0-9.6 1q0 1.8.3 3.6c1.9 1.5 5 1.4 7.3 1.5q23-1 45-7.3c3.7 0 9.3 5.2 13.9 3.5 5.3-2.5 9-9 12.3-13.6 2-2.7 4.6-4 7.2-5.9q5-3.4 9.6-7.3a46 46 0 0 1-.4 17 52 52 0 0 1-15 24.5 67 67 0 0 1-37.1 16.6 141 141 0 0 1-36.5.9 87 87 0 0 1-48.4-19.7c-5-4.7-9.8-8.9-11.2-16-2.3-8.6.4-20.7 10.1-23.5 8.2-2 17.8.5 26 2.2 12 2.8 25 2.4 36.7-1.7 14-4.9 25-17 38.8-21.3a30 30 0 0 1 20-.2" fill="white"/></g><g id="hair-short09-14d21430"><path d="M331.6 161c19.4-1 39.6 1 58 7.4 1.8.8 3.3.1 5-.2 13-3.2 25.8-3.4 39-2.8a147 147 0 0 1 55.7 16.3c1.5.6 2.7 1.5 4.3.8q9-3 18.2-5.6c14-3.7 28.4-3.8 42.8-3.1a156 156 0 0 1 47.7 13c15.7 7.1 30 17.4 42 29.9a84 84 0 0 1 22.5 43.7 72 72 0 0 1-3 36.2 42 42 0 0 1-9.5 16.6c-1.8 1.6-5.5 1-5.6-1.8-.5-4.7 0-9.3-1.2-14a49 49 0 0 0-19.4-28.8q2 5.5 4.3 10.9c5.2 9.6 9 20.3 12.5 30.7a440 440 0 0 1 18.9 79.2c.9 10 2.5 21 .4 30.9-.4 2-1.2 4.1-3.6 4.3-4-.3-7.9-1.3-12-.7a90 90 0 0 0-42.2 17.3l-2.8 1.4c-2-.6-2.8-1.8-3.3-3.7-1.7-5.8-2.7-11.7-4.8-17.4-1.8-5-4.3-9.4-6.6-14.3-2.4-5-4.4-10.4-7-15.4a90 90 0 0 1-24.7 15.2c-5.4 2-10.2 4.2-16.1 4-.6-2.3-1-3.4.7-5.4 4.7-5.7 7-13 8.3-20.2a47 47 0 0 0-8.3-33.2 85 85 0 0 0-23.6-20.4c-5.2-3.3-11-5.7-16.2-9-1 25.8-11.1 51.4-28.6 70.4q-6.1 6.6-14 11c-1.1.5-2.5 1.5-3.7 1.2-2-.4-3.2-2-2.6-4 1-4.3 2.8-8.4 3.5-12.8 2-12.5-.8-25-5.7-36.5a90 90 0 0 0-12.6-19.6 163 163 0 0 1-25.8 54.8c-3.1 3.7-6.4 7.8-10.5 10.4-2 1.1-5.2.5-5-2.2.2-5.6 1-10.8-.5-16.2a85 85 0 0 1-6 17c-1 1.5-2 3.1-3.9 3.5-1.4.3-2.8-.8-4-1.4-22-14-41.5-31.5-57.4-52.1q-6 17.6-5.8 36.1c0 3.5 1.4 7.3.8 10.7-2.1 2-5 .7-7.4 0a114 114 0 0 1-43.2-29.7 89 89 0 0 1-23-43.8c-6 9.5-11.6 19.5-15.7 30-1.1 2.6-1.2 7.1-4.4 7.8-1.5.8-3-1.2-3.6-2.4q-4.7-10.6-6.1-22.2a35 35 0 0 0-5.8 9c-.7 1.4-1.6 3.5-3.4 3-2 .3-3-2.7-3.4-4.2a131 131 0 0 1-6.8-40.2 75 75 0 0 1 19-50.2 70 70 0 0 1 32.3-22q0-10.6 4.5-20.2a78 78 0 0 1 30.9-33.2 106 106 0 0 1 47.5-13.8" fill="black"/><path d="M621.4 436.6a2.6 2.6 0 0 1-.2 4.3c-4.6 3.5-9.6 6.5-14 10l-7.3 5.8c-1.1 1-3 2.2-4.2.8-1.6-1.8-.5-3.7 1-5q9.5-8.2 20-15c1-.8 3.7-2.4 4.7-1" fill="black"/><g fill="#cb6820"><path d="M333.6 166.6c18.3-.6 36.7 1 54.2 6.7 7 1.8 12-1 18.8-1.5 15.5-2.2 31.7-.9 47 2.6 28 6.7 53.4 22 74 42 3.4 3.2 6.3 6.7 10 9.6 1-.8 2.8-1.3 2.8-2.7.4-2-1-3.1-2.2-4.5a180 180 0 0 0-39.5-31.9 145 145 0 0 1 25.9-6.7c13.3-1.4 26.5-1.7 39.8.7 17.4 3.4 34.8 9.4 49.9 18.8a130 130 0 0 1 27.9 23.2 75 75 0 0 1 20 49.5c.3 11-2.8 21.6-7.8 31.3-1-8-3-15.8-7.3-22.8a51 51 0 0 0-23.7-21.1c-2.4-.8-4.8 1-4.3 3.6 1.2 3.5 3.2 6.6 4.6 10a61 61 0 0 1 5.7 33c-2 16-10.1 29.7-21.3 41 6-26.2-1.6-54.8-20.3-74.1-1.4-1.6-3.9-1.7-4.9.3-.8 2.5.9 3.6 2.3 5.3a76 76 0 0 1 7.3 91.4 80 80 0 0 1-42.2 33.2 52 52 0 0 0-7.6-59.2c-9-9.8-20.2-17-32.2-22.8-2.9-1.4-6.8-3.4-8.5-6.2q-1.4-10.4-5.4-19.8c-.6-1.3-1.4-2.8-3-3-1.9-.2-3.6.9-3.1 2.9 2 5.6 4.4 11 5.2 17 1.5 7.8.3 15.2-.7 23-2.9 16.8-9.4 33-19.7 46.6a62 62 0 0 1-14.6 14.7c3.3-11.5 3-23.8-.5-35.3a83 83 0 0 0-20.4-34.9q7.2-28.7 4.3-58.1a131 131 0 0 0-12.2-42.5c-1.2-2.3-3-1.5-5.1-1.2q-.3 3.3 1 6.3a132 132 0 0 1 11 65.2 187 187 0 0 1-14.6 59c-5.3 12.6-12 24.5-21.4 34.4.2-8.8-1.4-17.9-4.2-26.2-.4-2-1.5-2.6-3-3.7-3.4 2.4-2.5 6-3.2 9.7q-1.2 12.6-6.4 24.1a210 210 0 0 1-41.2-33.3 183 183 0 0 1-36.5-53.3 112 112 0 0 1-10.6-46.5 67 67 0 0 1 9-35.9 61 61 0 0 1 26.8-24 90 90 0 0 1 32.1-8c3.2-.4 2.4-2.3 2.8-4.7q-2.9-.9-5.8-.7a83 83 0 0 0-45 16.4 67 67 0 0 0-24.7 42.9c-2.5 14.6-.7 28.9 2.9 43.2q-8.8-6-16.5-12.9a88 88 0 0 1-20.7-29.3 48 48 0 0 1-3.1-28.5 66 66 0 0 1 27.3-36.3 99 99 0 0 1 50.8-16"/><path d="M249 233.6c1.7 13.4 8 24.8 15.8 35.7 8.7 11.6 20 20 32 28 2.4 1.4 2.7 3.8 3.8 6.2 5 13.1 12.4 25.6 20.4 37.2a111 111 0 0 0-6.6 46.7 107 107 0 0 1-39.8-27 85 85 0 0 1-22.3-42c-1.2-8.3-1-17.8 3-25.4.7-1.9 2-3.7 1.8-5.8-1.3-2-3.4-2.3-5-.4a45 45 0 0 0-6.4 21.6c-.2 3.4-2.6 6-4.3 8.8a182 182 0 0 0-15.7 29.9q-3.2-8.6-3.8-17.7-.2-3.3-1.6-6.3c-1.2.4-2.4.6-3.4 1.6-3.2 2.7-6 6.2-8.6 9.6a126 126 0 0 1-5.3-33.9 71 71 0 0 1 15.6-44c8-10 18-18.7 30.4-22.8m386.6 67.9.1.4a427 427 0 0 1 20 73.7c2.3 13.7 5 29 3 42.8a62 62 0 0 0-15.1.4 97 97 0 0 0-38.4 16q-1.7-6.7-3.7-13.2c-2.4-7.6-6.9-14.6-10.1-22q-2.4-6-5.7-11.4 13.5-14 20-32.4c7-4.3 12.6-11.3 17.3-18a68 68 0 0 0 12.6-36.3"/></g></g><clipPath id="clip-14d21430"><rect width="762" height="762" rx="0" ry="0"/></clipPath></defs><g clip-path="url(#clip-14d21430)"><rect width="762" height="762" fill="#14b8a6"/><use transform="translate(143.2 162.9)" href="#head-default-14d21430"/><use transform="translate(154.7 340.2)" href="#eyes-variant14-14d21430"/><use transform="translate(154.6 268.5)" href="#eyebrows-variant10-14d21430"/><use transform="translate(232.5 456.6)" href="#mouth-variant23-14d21430"/><use transform="translate(-65.6 -47.4)" href="#hair-short09-14d21430"/></g></svg>